<svg width="350" height="54" viewBox="0 0 350 54" fill="none" xmlns="http://www.w3.org/2000/svg">
<path d="M94.3758 36.3614V27.8238C94.3758 23.4057 90.8072 19.8322 86.3454 19.8322H85.9981C84.2633 19.8322 82.5281 20.4277 81.6856 21.4702V11.3439C81.6856 10.1023 80.7436 9.45776 79.8016 9.45776C78.8596 9.45776 77.918 10.1027 77.918 11.3439V42.566C77.918 43.7575 78.86 44.353 79.8016 44.353C80.6445 44.353 81.4871 43.8563 81.6358 42.8648C82.3296 43.5591 83.7673 44.353 85.8987 44.353H86.345C90.757 44.353 94.3758 40.7795 94.3758 36.3614ZM90.6087 36.3614C90.6087 38.6945 88.7251 40.5811 86.3454 40.5811H85.8991C83.6686 40.5811 81.686 39.0917 81.686 36.6594V27.4266C81.686 25.1429 83.669 23.6045 85.8991 23.6045H86.3454C88.7251 23.6045 90.6087 25.4911 90.6087 27.8238V36.3614ZM110.189 42.4664C110.189 41.5236 109.594 40.5811 108.306 40.5811C106.769 40.5309 105.579 39.3399 105.579 37.8006V11.3439C105.579 10.1023 104.637 9.45776 103.695 9.45776C102.754 9.45776 101.812 10.1027 101.812 11.3439V37.8006C101.812 41.424 104.687 44.353 108.306 44.353C109.594 44.353 110.189 43.4097 110.189 42.4664ZM131.801 36.3614V27.8238C131.801 23.4057 128.233 19.8322 123.821 19.8322H123.325C118.913 19.8322 115.344 23.4057 115.344 27.8238V36.3614C115.344 40.7795 118.913 44.353 123.325 44.353H123.821C128.232 44.353 131.801 40.7795 131.801 36.3614ZM128.034 36.3614C128.034 38.6945 126.151 40.5811 123.821 40.5811H123.374C120.995 40.5811 119.111 38.6945 119.111 36.3614V27.8238C119.111 25.4911 120.995 23.6045 123.325 23.6045H123.821C126.151 23.6045 128.034 25.4911 128.034 27.8238V36.3614ZM154.653 36.3614C154.653 35.0712 153.711 34.4259 152.769 34.4259C151.878 34.4259 150.935 35.0712 150.886 36.3614C150.787 38.6945 149.002 40.5811 146.672 40.5811H146.226C143.847 40.5811 141.963 38.6945 141.963 36.3614V27.8238C141.963 25.4911 143.847 23.6045 146.177 23.6045H146.672C149.002 23.6045 150.786 25.3417 150.885 27.8731C150.935 29.1148 151.877 29.7103 152.769 29.7103C153.711 29.7103 154.653 29.0646 154.653 27.8238C154.653 23.4057 151.034 19.8322 146.671 19.8322H146.176C141.814 19.8322 138.195 23.3563 138.195 27.8238V36.3614C138.195 40.7795 141.764 44.353 146.176 44.353H146.671C151.084 44.353 154.653 40.7795 154.653 36.3614ZM178.397 42.4664C178.397 42.1689 178.348 41.8219 178.149 41.5236L171.358 29.6103L177.505 23.0584C177.902 22.6612 178.05 22.2147 178.05 21.7677C178.05 20.7743 177.207 19.8318 176.117 19.8318C175.671 19.8318 175.175 20.0298 174.778 20.4771L165.36 30.5038V11.3439C165.36 10.1023 164.418 9.45776 163.476 9.45776C162.534 9.45776 161.592 10.1027 161.592 11.3439V42.4664C161.592 43.7077 162.534 44.353 163.476 44.353C164.418 44.353 165.36 43.7077 165.36 42.4664V36.0627L168.681 32.4891L174.877 43.3595C175.274 44.0554 175.868 44.353 176.464 44.353C177.604 44.353 178.397 43.4591 178.397 42.4664ZM199.81 36.3614C199.81 35.0712 198.868 34.4259 197.927 34.4259C197.035 34.4259 196.092 35.0712 196.043 36.3614C195.944 38.6945 194.159 40.5811 191.83 40.5811H191.383C189.004 40.5811 187.12 38.6945 187.12 36.3614V27.8238C187.12 25.4911 189.004 23.6045 191.334 23.6045H191.83C194.159 23.6045 195.944 25.3417 196.043 27.8731C196.092 29.1148 197.035 29.7103 197.927 29.7103C198.869 29.7103 199.81 29.0646 199.81 27.8238C199.81 23.4057 196.192 19.8322 191.83 19.8322H191.334C186.972 19.8322 183.353 23.3563 183.353 27.8238V36.3614C183.353 40.7795 186.923 44.353 191.334 44.353H191.83C196.242 44.353 199.81 40.7795 199.81 36.3614ZM223.208 42.4664V27.8238C223.208 23.4057 219.639 19.8322 215.226 19.8322H214.83C213.095 19.8322 211.36 20.4277 210.516 21.3212V11.3439C210.516 10.1023 209.575 9.45776 208.634 9.45776C207.692 9.45776 206.751 10.1027 206.751 11.3439V42.4664C206.751 43.7077 207.692 44.353 208.634 44.353C209.576 44.353 210.516 43.7077 210.516 42.4664V27.5756C210.516 24.9939 212.749 23.6045 215.029 23.6045C217.209 23.6045 219.44 24.9449 219.44 27.8238V42.4664C219.44 43.7077 220.382 44.353 221.324 44.353C222.266 44.353 223.208 43.7077 223.208 42.4664ZM247.993 42.4183C247.993 41.6232 247.497 40.8289 246.406 40.6305C245.515 40.4819 245.118 39.8852 245.118 38.9921V27.4756C245.118 23.207 241.747 19.8318 237.335 19.8318H236.988C234.361 19.8318 231.188 20.8743 229.602 24.4482C229.453 24.7458 229.403 25.0433 229.403 25.3417C229.403 26.3841 230.346 27.0788 231.287 27.0788C231.932 27.0788 232.576 26.7813 232.973 26.0858C233.915 24.4478 234.956 23.6041 236.988 23.6041H237.335C239.517 23.6041 241.35 24.6964 241.35 27.6242C241.35 27.8727 241.35 28.2699 241.202 28.4683C240.013 30.1564 229.008 28.7658 228.661 36.6088V37.2043C228.661 41.8215 232.626 44.3526 236.642 44.3526H237.088C239.12 44.3526 241.004 43.6081 242.442 42.3681C243.086 43.3109 244.127 44.0554 245.812 44.3032C245.912 44.3526 246.06 44.3526 246.16 44.3526C247.348 44.353 247.993 43.4097 247.993 42.4183ZM241.35 36.3614C241.35 38.6945 239.417 40.5811 237.088 40.5811H236.641C234.113 40.5811 232.428 39.2407 232.428 37.1059V36.7084C232.576 33.2336 237.682 33.4328 241.35 32.4402V36.3614ZM257.708 42.4664V21.7184C257.708 20.4771 256.766 19.8322 255.825 19.8322C254.884 19.8322 253.941 20.4775 253.941 21.7184V42.4664C253.941 43.7077 254.884 44.353 255.825 44.353C256.766 44.353 257.708 43.7077 257.708 42.4664ZM282.096 42.4664V27.8238C282.096 22.3633 278.378 19.8322 274.165 19.8322H273.719C271.983 19.8322 270.348 20.4277 269.456 21.3212C269.258 20.3277 268.414 19.8322 267.572 19.8322C266.58 19.8322 265.639 20.5269 265.639 21.7184V42.4664C265.639 43.7077 266.581 44.353 267.523 44.353C268.465 44.353 269.406 43.7077 269.406 42.4664V27.8238C269.406 25.4911 271.34 23.6045 273.669 23.6045H274.116C276.495 23.6045 278.378 25.4911 278.378 27.8238V42.4664C278.378 43.7077 279.321 44.353 280.262 44.353C281.204 44.353 282.096 43.7077 282.096 42.4664ZM301.549 42.4664V21.7184C301.549 20.4771 300.607 19.8322 299.665 19.8322C298.724 19.8322 297.782 20.4775 297.782 21.7184V42.4664C297.782 43.7077 298.724 44.353 299.665 44.353C300.607 44.353 301.549 43.7077 301.549 42.4664ZM325.391 36.3614V27.8238C325.391 23.4057 321.822 19.8322 317.411 19.8322H316.915C312.503 19.8322 308.935 23.4057 308.935 27.8238V36.3614C308.935 40.7795 312.503 44.353 316.915 44.353H317.411C321.823 44.353 325.391 40.7795 325.391 36.3614ZM321.625 36.3614C321.625 38.6945 319.741 40.5811 317.411 40.5811H316.965C314.584 40.5811 312.702 38.6945 312.702 36.3614V27.8238C312.702 25.4911 314.584 23.6045 316.915 23.6045H317.411C319.741 23.6045 321.625 25.4911 321.625 27.8238V36.3614Z" fill="white" fill-opacity="0.5"/>
<path d="M40.5906 25.6938C39.4428 25.6938 38.5093 26.629 38.5093 27.778C38.5093 28.927 39.4432 29.8617 40.5906 29.8617C41.738 29.8617 42.6723 28.927 42.6723 27.778C42.6723 26.629 41.7385 25.6938 40.5906 25.6938Z" fill="white" fill-opacity="0.5"/>
<path d="M50.214 19.9116C49.0662 19.9116 48.1336 20.8467 48.1336 21.9957C48.1336 23.1451 49.0666 24.0794 50.214 24.0794C51.3615 24.0794 52.2961 23.1447 52.2961 21.9957C52.2965 20.8467 51.3619 19.9116 50.214 19.9116Z" fill="white" fill-opacity="0.5"/>
<path d="M59.8378 14.1296C58.6904 14.1296 57.7566 15.0643 57.7566 16.2133C57.7566 17.3628 58.6904 18.2987 59.8378 18.2987C60.9861 18.2987 61.9191 17.3632 61.9191 16.2133C61.9191 15.0643 60.9861 14.1296 59.8378 14.1296Z" fill="white" fill-opacity="0.5"/>
<path d="M30.9666 8.34717C29.8192 8.34717 28.8853 9.28228 28.8853 10.4317C28.8853 11.5807 29.8192 12.5154 30.9666 12.5154C32.1144 12.5154 33.0483 11.5807 33.0483 10.4317C33.0483 9.28228 32.1148 8.34717 30.9666 8.34717Z" fill="white" fill-opacity="0.5"/>
<path d="M40.5908 2.56494C39.443 2.56494 38.5096 3.50047 38.5096 4.64946C38.5096 5.79887 39.4434 6.73399 40.5908 6.73399C41.7383 6.73399 42.6725 5.79887 42.6725 4.64946C42.6725 3.50047 41.7387 2.56494 40.5908 2.56494Z" fill="white" fill-opacity="0.5"/>
<path d="M40.5906 14.1296C39.4428 14.1296 38.5093 15.0643 38.5093 16.2133C38.5093 17.3628 39.4432 18.2987 40.5906 18.2987C41.738 18.2987 42.6723 17.3632 42.6723 16.2133C42.6723 15.0643 41.7385 14.1296 40.5906 14.1296Z" fill="white" fill-opacity="0.5"/>
<path d="M50.214 8.34717C49.0662 8.34717 48.1336 9.28228 48.1336 10.4317C48.1336 11.5807 49.0666 12.5154 50.214 12.5154C51.3615 12.5154 52.2961 11.5807 52.2961 10.4317C52.2965 9.28228 51.3619 8.34717 50.214 8.34717Z" fill="white" fill-opacity="0.5"/>
<path d="M50.214 31.4763C49.0662 31.4763 48.1336 32.411 48.1336 33.5596C48.1336 34.709 49.0666 35.6437 50.214 35.6437C51.3615 35.6437 52.2961 34.709 52.2961 33.5596C52.2965 32.411 51.3619 31.4763 50.214 31.4763Z" fill="white" fill-opacity="0.5"/>
<path d="M59.8378 25.6938C58.6904 25.6938 57.7566 26.629 57.7566 27.778C57.7566 28.927 58.6904 29.8617 59.8378 29.8617C60.9861 29.8617 61.9191 28.927 61.9191 27.778C61.9191 26.629 60.9861 25.6938 59.8378 25.6938Z" fill="white" fill-opacity="0.5"/>
<path d="M50.214 43.04C49.0662 43.04 48.1336 43.9747 48.1336 45.1242C48.1336 46.2732 49.0666 47.2079 50.214 47.2079C51.3615 47.2079 52.2961 46.2732 52.2961 45.1242C52.2965 43.9747 51.3619 43.04 50.214 43.04Z" fill="white" fill-opacity="0.5"/>
<path d="M59.8378 37.2578C58.6904 37.2578 57.7566 38.1925 57.7566 39.3419C57.7566 40.4909 58.6904 41.4256 59.8378 41.4256C60.9861 41.4256 61.9191 40.4909 61.9191 39.3419C61.9191 38.1925 60.9861 37.2578 59.8378 37.2578Z" fill="white" fill-opacity="0.5"/>
<path d="M40.5906 48.8223C39.4428 48.8223 38.5093 49.7574 38.5093 50.9064C38.5093 52.055 39.4432 52.9901 40.5906 52.9901C41.738 52.9901 42.6723 52.055 42.6723 50.9064C42.6723 49.7574 41.7385 48.8223 40.5906 48.8223Z" fill="white" fill-opacity="0.5"/>
<path d="M40.5906 37.2578C39.4428 37.2578 38.5093 38.1925 38.5093 39.3419C38.5093 40.4909 39.4432 41.4256 40.5906 41.4256C41.738 41.4256 42.6723 40.4909 42.6723 39.3419C42.6723 38.1925 41.7385 37.2578 40.5906 37.2578Z" fill="white" fill-opacity="0.5"/>
<path d="M30.9666 19.9116C29.8192 19.9116 28.8853 20.8467 28.8853 21.9957C28.8853 23.1451 29.8192 24.0794 30.9666 24.0794C32.1144 24.0794 33.0483 23.1447 33.0483 21.9957C33.0483 20.8467 32.1148 19.9116 30.9666 19.9116Z" fill="white" fill-opacity="0.5"/>
<path d="M30.9666 43.04C29.8192 43.04 28.8853 43.9747 28.8853 45.1242C28.8853 46.2732 29.8192 47.2079 30.9666 47.2079C32.1144 47.2079 33.0483 46.2732 33.0483 45.1242C33.0483 43.9747 32.1148 43.04 30.9666 43.04Z" fill="white" fill-opacity="0.5"/>
<path d="M30.9666 31.4763C29.8192 31.4763 28.8853 32.411 28.8853 33.5596C28.8853 34.709 29.8192 35.6437 30.9666 35.6437C32.1144 35.6437 33.0483 34.709 33.0483 33.5596C33.0483 32.411 32.1148 31.4763 30.9666 31.4763Z" fill="white" fill-opacity="0.5"/>
<path d="M21.3432 14.1296C20.1954 14.1296 19.2623 15.0643 19.2623 16.2133C19.2623 17.3628 20.1958 18.2987 21.3432 18.2987C22.4906 18.2987 23.4249 17.3632 23.4249 16.2133C23.4249 15.0643 22.4906 14.1296 21.3432 14.1296Z" fill="white" fill-opacity="0.5"/>
<path d="M21.3432 37.2578C20.1954 37.2578 19.2623 38.1925 19.2623 39.3419C19.2623 40.4909 20.1958 41.4256 21.3432 41.4256C22.4906 41.4256 23.4249 40.4909 23.4249 39.3419C23.4249 38.1925 22.4906 37.2578 21.3432 37.2578Z" fill="white" fill-opacity="0.5"/>
<path d="M21.3432 25.6938C20.1954 25.6938 19.2623 26.629 19.2623 27.778C19.2623 28.927 20.1958 29.8617 21.3432 29.8617C22.4906 29.8617 23.4249 28.927 23.4249 27.778C23.4249 26.629 22.4906 25.6938 21.3432 25.6938Z" fill="white" fill-opacity="0.5"/>
<path d="M255.794 9.354C254.75 9.354 253.899 10.2042 253.899 11.25C253.899 12.2957 254.75 13.1463 255.794 13.1463C256.838 13.1463 257.688 12.2957 257.688 11.25C257.688 10.2042 256.838 9.354 255.794 9.354Z" fill="white" fill-opacity="0.5"/>
<path d="M299.649 9.354C298.605 9.354 297.755 10.2042 297.755 11.25C297.755 12.2957 298.605 13.1463 299.649 13.1463C300.694 13.1463 301.543 12.2957 301.543 11.25C301.543 10.2042 300.694 9.354 299.649 9.354Z" fill="white" fill-opacity="0.5"/>
<path d="M289.714 40.7166C288.676 40.7166 287.83 41.5623 287.83 42.6023C287.83 43.6423 288.676 44.4889 289.714 44.4889C290.753 44.4889 291.598 43.6423 291.598 42.6023C291.598 41.5623 290.753 40.7166 289.714 40.7166Z" fill="white" fill-opacity="0.5"/>
</svg>
