<svg width="70" height="20" viewBox="0 0 70 20" fill="none" xmlns="http://www.w3.org/2000/svg">
<path d="M9.87327 1.10034L4.41006 10.1662L9.87327 7.6831V1.10034Z" fill="white"/>
<path d="M9.87327 7.68286L4.41006 10.1659L9.87327 13.3961V7.68286Z" fill="white"/>
<path d="M15.3371 10.1662L9.87286 1.10034V7.6831L15.3371 10.1662Z" fill="white"/>
<path d="M9.87286 13.3961L15.3371 10.1659L9.87286 7.68286V13.3961Z" fill="white"/>
<path d="M4.41006 11.2029L9.87327 18.9022V14.431L4.41006 11.2029Z" fill="white"/>
<path d="M9.87286 14.431V18.9022L15.3401 11.2029L9.87286 14.431Z" fill="white"/>
<path d="M21.7766 13.5225V6.52568H28.2194V7.81814H23.069V9.37298H27.2088V10.6752H23.069V12.23H28.2194V13.5225H21.7766ZM31.7045 13.5225V7.81814H28.8474V6.52568H35.8442V7.81814H32.9969V13.5225H31.7045ZM36.5807 13.5225V6.52568H37.8635V9.37298H42.4502V6.52568H43.733V13.5225H42.4502V10.6752H37.8635V13.5225H36.5807ZM49.1288 13.5225C48.915 13.5225 48.7141 13.4674 48.5263 13.3573C48.3384 13.2406 48.1764 13.0884 48.0404 12.9005C47.9108 12.7062 47.8234 12.4891 47.778 12.2494H53.3268C53.3592 12.2494 53.3852 12.2397 53.4046 12.2203C53.4305 12.1944 53.4435 12.1652 53.4435 12.1328V10.8404C53.4435 10.808 53.4305 10.7821 53.4046 10.7626C53.3852 10.7367 53.3592 10.7237 53.3268 10.7237H49.1288C48.8761 10.7237 48.6494 10.6622 48.4485 10.5391C48.2477 10.416 48.0857 10.2541 47.9626 10.0532C47.8396 9.84591 47.778 9.61916 47.778 9.37298V7.86673C47.778 7.61406 47.8396 7.38732 47.9626 7.18648C48.0857 6.98565 48.2477 6.82693 48.4485 6.71031C48.6494 6.58722 48.8761 6.52568 49.1288 6.52568H53.3754C53.6216 6.52568 53.8451 6.58722 54.046 6.71031C54.2468 6.82693 54.4088 6.98565 54.5318 7.18648C54.6549 7.38732 54.7165 7.61406 54.7165 7.86673V12.1814C54.7165 12.4276 54.6549 12.6511 54.5318 12.8519C54.4088 13.0528 54.2468 13.2147 54.046 13.3378C53.8451 13.4609 53.6216 13.5225 53.3754 13.5225H49.1288ZM49.1774 9.441H53.4435V7.91531C53.4435 7.88292 53.4305 7.85701 53.4046 7.83757C53.3852 7.81166 53.3592 7.7987 53.3268 7.7987H49.1774C49.145 7.7987 49.1158 7.81166 49.0899 7.83757C49.0705 7.85701 49.0607 7.88292 49.0607 7.91531V9.32439C49.0607 9.35678 49.0705 9.38594 49.0899 9.41185C49.1158 9.43129 49.145 9.441 49.1774 9.441ZM55.8352 13.5225V12.2494H57.1083V13.5225H55.8352ZM59.378 13.5225C59.1253 13.5225 58.8986 13.4609 58.6977 13.3378C58.4969 13.2147 58.3349 13.0528 58.2118 12.8519C58.0887 12.6511 58.0272 12.4276 58.0272 12.1814V11.7635H59.3002V12.1328C59.3002 12.1652 59.3099 12.1944 59.3294 12.2203C59.3553 12.2397 59.3844 12.2494 59.4168 12.2494H63.5663C63.5987 12.2494 63.6279 12.2397 63.6538 12.2203C63.6797 12.1944 63.6927 12.1652 63.6927 12.1328V10.7335C63.6927 10.7011 63.6797 10.6752 63.6538 10.6557C63.6279 10.6298 63.5987 10.6169 63.5663 10.6169H59.2322V9.34383H63.2942C63.3266 9.34383 63.3525 9.33411 63.372 9.31467C63.3979 9.28876 63.4108 9.2596 63.4108 9.22721V7.91531C63.4108 7.88292 63.3979 7.85701 63.372 7.83757C63.3525 7.81166 63.3266 7.7987 63.2942 7.7987H59.4168C59.3844 7.7987 59.3553 7.81166 59.3294 7.83757C59.3099 7.85701 59.3002 7.88292 59.3002 7.91531V8.37205H58.0272V7.86673C58.0272 7.61406 58.0887 7.38732 58.2118 7.18648C58.3349 6.98565 58.4969 6.82693 58.6977 6.71031C58.8986 6.58722 59.1253 6.52568 59.378 6.52568H63.3428C63.5955 6.52568 63.8222 6.58722 64.0231 6.71031C64.2239 6.82693 64.3826 6.98565 64.4992 7.18648C64.6223 7.38732 64.6839 7.61406 64.6839 7.86673V9.28552C64.6839 9.36326 64.6774 9.44424 64.6644 9.52846C64.6515 9.6062 64.632 9.68071 64.6061 9.75197C64.7227 9.87506 64.8102 10.0208 64.8685 10.1893C64.9333 10.3512 64.9657 10.5164 64.9657 10.6849V12.1814C64.9657 12.4276 64.9041 12.6511 64.781 12.8519C64.658 13.0528 64.496 13.2147 64.2952 13.3378C64.0943 13.4609 63.8708 13.5225 63.6246 13.5225H59.378ZM67.7855 13.5225V8.36233L67.2316 9.04257H65.5504L67.6592 6.52568H69.0682V13.5225H67.7855Z" fill="white"/>
</svg>
