<svg width="251" height="152" viewBox="0 0 251 152" fill="none" xmlns="http://www.w3.org/2000/svg">
<g filter="url(#filter0_bd_2_991)">
<path d="M191.129 56.4101C192.106 56.4101 192.899 57.2024 192.899 58.1797V81.4954C192.899 82.1716 192.513 82.7886 191.906 83.0854L174.429 91.6223C174.188 91.7404 173.922 91.8018 173.653 91.8018H60.1797C59.2024 91.8018 58.4101 91.0096 58.4101 90.0323V68.3493C58.4101 67.6655 58.804 67.043 59.4219 66.7502L80.8816 56.5806C81.1185 56.4684 81.3773 56.4101 81.6394 56.4101H191.129Z" stroke="url(#paint0_linear_2_991)" stroke-width="1.17972" shape-rendering="crispEdges"/>
</g>
<path d="M87.696 78V69.36H95.652V70.956H89.292V72.876H94.404V74.484H89.292V76.404H95.652V78H87.696ZM96.7395 78V77.58L99.2955 74.46L96.7395 71.46V71.04H98.4435L100.316 73.248L102.188 71.04H103.892V71.46L101.336 74.46L103.892 77.58V78H102.2L100.316 75.696L98.4435 78H96.7395ZM105.144 80.76V71.04H110.556C110.86 71.04 111.136 71.116 111.384 71.268C111.64 71.42 111.84 71.62 111.984 71.868C112.136 72.116 112.212 72.392 112.212 72.696V76.344C112.212 76.648 112.136 76.924 111.984 77.172C111.84 77.42 111.64 77.62 111.384 77.772C111.136 77.924 110.86 78 110.556 78H106.716V80.76H105.144ZM106.86 76.428H110.496C110.536 76.428 110.568 76.416 110.592 76.392C110.624 76.36 110.64 76.324 110.64 76.284V72.756C110.64 72.716 110.624 72.684 110.592 72.66C110.568 72.628 110.536 72.612 110.496 72.612H106.86C106.82 72.612 106.784 72.628 106.752 72.66C106.728 72.684 106.716 72.716 106.716 72.756V76.284C106.716 76.324 106.728 76.36 106.752 76.392C106.784 76.416 106.82 76.428 106.86 76.428ZM114.745 78C114.441 78 114.165 77.924 113.917 77.772C113.669 77.62 113.469 77.42 113.317 77.172C113.165 76.924 113.089 76.648 113.089 76.344V68.748H114.673V76.284C114.673 76.324 114.685 76.36 114.709 76.392C114.741 76.416 114.777 76.428 114.817 76.428H116.149V78H114.745ZM118.694 78C118.39 78 118.114 77.924 117.866 77.772C117.618 77.62 117.418 77.42 117.266 77.172C117.114 76.924 117.038 76.648 117.038 76.344V72.696C117.038 72.392 117.114 72.116 117.266 71.868C117.418 71.62 117.618 71.42 117.866 71.268C118.114 71.116 118.39 71.04 118.694 71.04H122.45C122.754 71.04 123.03 71.116 123.278 71.268C123.534 71.42 123.734 71.62 123.878 71.868C124.03 72.116 124.106 72.392 124.106 72.696V76.344C124.106 76.648 124.03 76.924 123.878 77.172C123.734 77.42 123.538 77.62 123.29 77.772C123.042 77.924 122.762 78 122.45 78H118.694ZM118.754 76.428H122.39C122.43 76.428 122.462 76.416 122.486 76.392C122.518 76.36 122.534 76.324 122.534 76.284V72.756C122.534 72.716 122.518 72.684 122.486 72.66C122.462 72.628 122.43 72.612 122.39 72.612H118.754C118.714 72.612 118.678 72.628 118.646 72.66C118.622 72.684 118.61 72.716 118.61 72.756V76.284C118.61 76.324 118.622 76.36 118.646 76.392C118.678 76.416 118.714 76.428 118.754 76.428ZM125.101 78V72.696C125.101 72.392 125.177 72.116 125.329 71.868C125.481 71.62 125.681 71.42 125.929 71.268C126.185 71.116 126.461 71.04 126.757 71.04H130.621V72.612H126.817C126.777 72.612 126.741 72.628 126.709 72.66C126.685 72.684 126.673 72.716 126.673 72.756V78H125.101ZM133.096 78C132.792 78 132.516 77.924 132.268 77.772C132.02 77.62 131.82 77.42 131.668 77.172C131.516 76.924 131.44 76.648 131.44 76.344V72.696C131.44 72.392 131.516 72.116 131.668 71.868C131.82 71.62 132.02 71.42 132.268 71.268C132.516 71.116 132.792 71.04 133.096 71.04H136.852C137.156 71.04 137.432 71.116 137.68 71.268C137.936 71.42 138.136 71.62 138.28 71.868C138.432 72.116 138.508 72.392 138.508 72.696V75.312H133.012V76.284C133.012 76.324 133.024 76.36 133.048 76.392C133.08 76.416 133.116 76.428 133.156 76.428H138.508V78H133.096ZM133.012 73.896H136.936V72.756C136.936 72.716 136.92 72.684 136.888 72.66C136.864 72.628 136.832 72.612 136.792 72.612H133.156C133.116 72.612 133.08 72.628 133.048 72.66C133.024 72.684 133.012 72.716 133.012 72.756V73.896Z" fill="white"/>
<path d="M170.484 77.6455L173.433 74.6962L170.484 71.7469L171.074 70.5671L175.203 74.6962L171.074 78.8252L170.484 77.6455Z" fill="white"/>
<line x1="173.433" y1="74.6963" x2="147.479" y2="74.6963" stroke="white" stroke-width="1.17972"/>
<defs>
<filter id="filter0_bd_2_991" x="-55.4333" y="-57.4332" width="362.175" height="263.078" filterUnits="userSpaceOnUse" color-interpolation-filters="sRGB">
<feFlood flood-opacity="0" result="BackgroundImageFix"/>
<feGaussianBlur in="BackgroundImageFix" stdDeviation="56.6267"/>
<feComposite in2="SourceAlpha" operator="in" result="effect1_backgroundBlur_2_991"/>
<feColorMatrix in="SourceAlpha" type="matrix" values="0 0 0 0 0 0 0 0 0 0 0 0 0 0 0 0 0 0 127 0" result="hardAlpha"/>
<feOffset dy="2.35945"/>
<feGaussianBlur stdDeviation="28.6083"/>
<feComposite in2="hardAlpha" operator="out"/>
<feColorMatrix type="matrix" values="0 0 0 0 1 0 0 0 0 0.337255 0 0 0 0 0.964706 0 0 0 0.51 0"/>
<feBlend mode="normal" in2="effect1_backgroundBlur_2_991" result="effect2_dropShadow_2_991"/>
<feBlend mode="normal" in="SourceGraphic" in2="effect2_dropShadow_2_991" result="shape"/>
</filter>
<linearGradient id="paint0_linear_2_991" x1="56.6658" y1="91.212" x2="196.901" y2="67.1231" gradientUnits="userSpaceOnUse">
<stop offset="0.473958" stop-color="#FFA6FA"/>
<stop offset="0.96875" stop-color="#3C79D5"/>
</linearGradient>
</defs>
</svg>
