<svg width="402" height="478" viewBox="0 0 402 478" fill="none" xmlns="http://www.w3.org/2000/svg">
    <defs>
        <clipPath id="your-clip-path">
            <path d="M0.495178 459.677V72.555C0.495178 66.7097 3.38309 61.2419 8.21089 57.9465L88.5373 3.11643C91.4759 1.11059 94.951 0.0375977 98.5089 0.0375977H384.09C393.858 0.0375977 401.777 7.9565 401.777 17.725V417.559C401.777 423.166 399.119 428.44 394.613 431.776L337.713 473.893C334.667 476.147 330.978 477.364 327.19 477.364H18.1825C8.41407 477.364 0.495178 469.445 0.495178 459.677Z"/>
        </clipPath>
        <linearGradient id="paint0_linear_2_374" x1="201.136" y1="0.0375977" x2="401.777" y2="487.893" gradientUnits="userSpaceOnUse">
            <stop stop-color="#D771F1"/>
            <stop offset="1" stop-color="#7A4DEE"/>
        </linearGradient>
    </defs>
    <path d="M0.495178 459.677V72.555C0.495178 66.7097 3.38309 61.2419 8.21089 57.9465L88.5373 3.11643C91.4759 1.11059 94.951 0.0375977 98.5089 0.0375977H384.09C393.858 0.0375977 401.777 7.9565 401.777 17.725V417.559C401.777 423.166 399.119 428.44 394.613 431.776L337.713 473.893C334.667 476.147 330.978 477.364 327.19 477.364H18.1825C8.41407 477.364 0.495178 469.445 0.495178 459.677Z" fill="url(#paint0_linear_2_374)"/>
</svg>
